<svg xmlns="http://www.w3.org/2000/svg" version="1.1" viewBox="-5.0 -10.0 110.0 135.0">
 <path d="m58.68 79.504c-6.5508 0-12.598-1.6133-20.223-5.3906-2.4922-1.2344-6.5-2.1992-10.781-2.6641 0.30078-2.1328 0.55469-4.2188 0.77344-6.2617 0-0.003906 0.003906-0.007812 0.003906-0.011719 0-0.003906-0.003906-0.007812-0.003906-0.011719 0.37891-3.6055 0.63281-7.0781 0.75-10.418 0.11328-3.3203 0.09375-6.5078-0.050781-9.5859 0-0.003906 0.003906-0.007812 0.003906-0.015625 0-0.003906-0.003906-0.007812-0.007813-0.011719-0.11719-2.4805-0.32422-4.8906-0.61328-7.2227 0-0.003906 0.003906-0.007812 0.003906-0.015625 0-0.003906-0.007812-0.007812-0.007812-0.011719-0.30078-2.4297-0.69141-4.7852-1.1797-7.0664 3.1914 0.078125 5.5742 1.7148 6.8672 8.9453 0.015625 0.082031 0.066406 0.14844 0.14453 0.17969 0.03125 0.011719 0.0625 0.019532 0.09375 0.019532 0.046875 0 0.09375-0.015626 0.13672-0.042969 0.98438-0.66406 1.2852-1.5273 1.5703-2.3594 0.042969-0.12109 0.082032-0.24219 0.12891-0.36328 0.078126-0.21094-0.066406-0.47266-0.32031-0.91797-0.042969-0.070313-0.089844-0.15625-0.13672-0.23828 0.64062 0.097657 0.98438 0.10547 1.1523-0.082031 0.078125-0.085937 0.10547-0.20312 0.074219-0.32031-0.039063-0.15234-0.1875-0.28125-1.1406-0.97656-0.19922-0.14453-0.45312-0.32812-0.66016-0.48828 0.20313 0.015625 0.42969 0.035156 0.60938 0.050781 1.1758 0.10156 1.332 0.10156 1.4414-0.070312 0.046875-0.078125 0.050781-0.1875 0.003906-0.26562-0.44141-0.75781-1.2109-1.1211-1.9297-1.3359 1.082-0.050781 1.0938-0.078125 1.1602-0.22656 0.039062-0.082031 0.023437-0.18359-0.03125-0.25781-0.98828-1.2422-2.4102-1.1875-3.3594-1.1484 1.25-0.6875 1.25-0.875 1.2461-0.99609 0-0.10547-0.0625-0.20312-0.16016-0.25-0.18359-0.089844-0.60547-0.078125-1.8711 0.007813-0.27344 0.019531-0.59766 0.039062-0.86328 0.054687 0.089844-0.066406 0.17969-0.12891 0.25-0.18359 0.5625-0.40625 0.75-0.53906 0.71094-0.75781-0.019532-0.10156-0.09375-0.17969-0.19531-0.20703-1.543-0.42188-2.6641-0.39453-3.4258-0.32422 2.9375-1.6094 5.2734-1.0117 9.0469 2.1211 0.070313 0.058594 0.16406 0.070313 0.24609 0.039063 0.082031-0.035156 0.14062-0.11328 0.14844-0.20312 0.082032-0.93359-0.21484-1.875-0.85938-2.7148-0.09375-0.12109-0.25-0.15234-0.91406-0.23438 0.58203-0.19922 0.71094-0.25391 0.75-0.42188 0.019531-0.082031-0.011719-0.17969-0.070313-0.23828-0.21875-0.21094-0.67188-0.25391-1.3984-0.30469-0.18359-0.011719-0.40234-0.027344-0.58984-0.050782 0.058594-0.03125 0.11328-0.0625 0.16406-0.089844 0.49219-0.26562 0.69531-0.375 0.69531-0.58594 0-0.097656-0.054688-0.18359-0.14062-0.23438-0.25391-0.13672-0.66797-0.09375-1.3203-0.003906-0.27734 0.039062-0.64844 0.085937-0.82812 0.070312 0.027343-0.074218 0.085937-0.17578 0.125-0.24609 0.125-0.22266 0.23828-0.43359 0.16797-0.63281-0.035156-0.09375-0.10547-0.16797-0.20312-0.20703-0.21875-0.089844-0.62891 0.003906-1.4414 0.22656-0.21094 0.058594-0.45703 0.125-0.61719 0.15625 0.003906-0.015625 0.007812-0.03125 0.007812-0.046875 0.03125-0.16016 0.070312-0.34766-0.046875-0.48047-0.066406-0.074219-0.16016-0.11328-0.26562-0.10547-1.8008 0.11719-3.3672 1.293-4.3203 2.5898 0.10937-0.52734 0.41016-1.1055 0.88281-1.6836 1.2812-1.5664 4.0195-3.2539 7.0156-3.2539 0.10547 0 0.19922-0.066406 0.23047-0.16797 0.03125-0.097656-0.003906-0.20703-0.089844-0.26953-0.76562-0.55469-1.5898-0.91406-2.4492-1.0625-0.14453-0.027343-0.32422 0.050782-0.76562 0.26172-0.09375 0.046875-0.21875 0.10547-0.32031 0.14844 0.003906-0.066407 0.011718-0.14453 0.015625-0.19922 0.027343-0.26562 0.046875-0.49609-0.085938-0.64062-0.0625-0.066406-0.14844-0.10156-0.24219-0.097656-0.29297 0.011719-0.64062 0.36328-1.1836 0.93359-0.16016 0.16797-0.37109 0.39063-0.53125 0.53125 0.003906-0.050781 0.003906-0.097656 0.007812-0.13672 0.019532-0.30859 0.035157-0.55078-0.15234-0.66797-0.046875-0.027344-0.16797-0.085937-0.32812 0.003906-0.23047 0.13281-0.44922 0.50391-0.78516 1.0977-0.10547 0.18359-0.22266 0.39453-0.32422 0.55469-0.023438-0.070313-0.042969-0.14062-0.058594-0.19922-0.125-0.41797-0.19531-0.64844-0.39844-0.69922-0.09375-0.023438-0.19531 0.003906-0.26563 0.078124-0.80859 0.82813-1.6875 2-1.9258 3.8906-0.37109-1.3164-0.76562-2.625-1.1914-3.9062-0.039063-0.12109-0.16406-0.1875-0.28906-0.15625-0.12109 0.03125-0.19922 0.14844-0.17969 0.27344 0.125 0.73047 0.15234 1.5078 0.18359 2.2578 0.015625 0.43359 0.042969 0.87109 0.078125 1.3047-1.543-1.6992-3.3398-2.8711-6.5-3.1562-0.11719-0.011719-0.22656 0.066406-0.25391 0.17969-0.03125 0.11328 0.027343 0.23438 0.13672 0.28125 2.5312 1.125 4.1836 2.6016 5.1367 3.6211-3.5508-1.6953-7.2422-1.8555-9.2734-0.32422-1.3594 1.0234-1.832 2.7031-1.3281 4.7305 0.023438 0.089844 0.09375 0.16016 0.1875 0.17969 0.089844 0.019531 0.18359-0.015625 0.24219-0.09375 0.56641-0.75391 1.1172-1.0938 1.6328-1.375 0.12891-0.070313 0.23828-0.25 0.50391-0.71094 0.03125-0.054687 0.066406-0.12109 0.10547-0.18359 0.050781 0.25 0.11328 0.40625 0.26172 0.47266 0.09375 0.039062 0.19531 0.027343 0.27734-0.03125 0.18359-0.125 0.44141-0.42578 0.73828-0.77734 0.20703-0.24219 0.48828-0.57031 0.69141-0.75781v0.035157c0.007812 0.24219 0.019531 0.47266 0.18359 0.59375 0.082031 0.058593 0.17969 0.078125 0.28125 0.050781 0.24219-0.0625 0.57031-0.24219 0.91797-0.43359s0.77344-0.42188 1.0195-0.47266c0.007813 0.035156 0.011719 0.078125 0.015625 0.10938 0.019532 0.17578 0.066406 0.54297 0.42578 0.5625 0.23047 0.011719 0.50781-0.078125 0.80469-0.17188 0.20703-0.066406 0.45703-0.14453 0.61328-0.15234 0.003906 0.023438 0.003906 0.050782 0.007813 0.074219 0.011719 0.15234 0.035156 0.4375 0.30469 0.5l0.10547 0.027344c0.75391 0.18359 1.2773 0.3125 1.6406 0.47266-2.8984-0.33203-5.7109 0.93359-7.4961 3.4258-2.2812 3.1875-2.2617 7.5195 0.050782 11.305 0.042968 0.074218 0.125 0.11719 0.20703 0.11719 0.023437 0 0.050781-0.003906 0.074219-0.011719 0.10547-0.035156 0.17578-0.13672 0.16406-0.25-0.050781-0.58984 0.37891-1.8398 0.69141-2.75 0.027344-0.078124 0.023438-0.14453-0.042968-0.30469 0.003906 0 0.011718 0 0.015624-0.003906 0.085938-0.015625 0.16016-0.082031 0.1875-0.16406 0.19141-0.5625 0.32813-1 0.37891-1.2969 0.039062-0.23047-0.0625-0.75391-0.19141-1.2812l0.40234 0.58203c0.046875 0.070313 0.12891 0.10156 0.21094 0.097657 0.082031-0.003907 0.16016-0.054688 0.19922-0.12891 0.125-0.22656 0.50391-0.91406 0.71875-1.543 0.019532-0.058594 0.03125-0.085938-0.042968-0.38672h0.03125c0.10156 0 0.19531-0.070313 0.23047-0.16797 0.18359-0.53906 0.37109-1.0977 0.44531-1.25 0.015625-0.035156 0.027344-0.074218 0.023437-0.11719l-0.058593-1.4727 0.38281 0.56641c0.042969 0.0625 0.10938 0.10156 0.1875 0.10547 0.074219 0.003906 0.14844-0.027344 0.19531-0.082032 0.28906-0.33594 0.55859-0.62109 0.82422-0.875 0.10938-0.10547 0.12891-0.27734 0.17578-1.0352 0.097656 0.27734 0.17188 0.40625 0.3125 0.44922 0.085937 0.027343 0.17578 0.011719 0.24609-0.042969 0.85547-0.65625 1.3984-1.0742 2.418-1.0859-2.1055 1.2812-3.375 3.125-3.5977 5.2617-0.25391 2.4258 0.875 4.9023 3.0195 6.6211 0.078125 0.0625 0.18359 0.070313 0.27344 0.019531 0.085937-0.050781 0.13281-0.14844 0.11719-0.24609-0.12891-0.83203-0.11328-2.3398 0.097656-2.9648 0.019532-0.058594 0.015626-0.125-0.011718-0.18359-0.16406-0.33594-0.39062-0.80469-0.55078-1.1367 0.26172 0.050782 0.54297 0.10156 0.5625 0.10547 0.082032 0.019531 0.16797-0.007813 0.22656-0.066406 0.058594-0.058594 0.082031-0.14844 0.058594-0.22656-0.035157-0.13672-0.45703-1.5742-0.69141-2.3594 0.15234 0.074219 0.35547 0.14453 0.71875 0.14453 0.078126 0 0.15234-0.039062 0.19922-0.10156s0.054688-0.14844 0.027344-0.22266c-0.1875-0.51953-0.23047-1.2188-0.19141-1.5391 0.070312 0.0625 0.17578 0.078125 0.26172 0.035157 0.089843-0.042969 0.14453-0.13672 0.13672-0.23828-0.039062-0.51172 0.33984-1.3125 0.76953-1.7383 0.62891 3.3594 1.0156 6.9453 1.1953 10.582 0 0.003906-0.003906 0.007813-0.003906 0.011719s0.003906 0.007813 0.003906 0.011719c0.12109 2.4883 0.14062 4.9961 0.082031 7.4727 0 0.003906-0.003906 0.007812-0.003906 0.011719 0 0.003906 0.003906 0.007812 0.003906 0.011719-0.074219 3.0508-0.27734 6.043-0.58594 8.8711-0.53125 4.8594-1.375 9.2148-2.4062 12.516-0.23047-0.007812-0.45703-0.015625-0.6875-0.015625-2.3164 0-4.4492 1.3086-6.5117 2.5742-1.4023 0.85938-2.8516 1.75-4.3359 2.2148-1.7461 0.54688-1.8047 1.4648-1.75 1.832 0.21875 1.4414 2.8789 2.5273 6.1836 2.5273 7.0039 0 14.137-0.039063 21.039-0.074219 6.9375-0.035156 14.109-0.074219 21.184-0.074219 0.17578 0 0.32031-0.14453 0.32031-0.32031 0-0.17969-0.14453-0.32031-0.32031-0.32031zm-33.867-11.105 1 0.23437c0.019531 0.003907 0.039062 0.007813 0.054688 0.007813 0.10937 0 0.20703-0.074219 0.23437-0.1875 0.03125-0.12891-0.050781-0.25781-0.17969-0.28906l-0.99609-0.23437c0.61328-2.6484 1.1172-5.7031 1.4844-8.9883l0.52344 0.058594h0.027344c0.12109 0 0.22656-0.089844 0.23828-0.21484 0.015625-0.13281-0.082031-0.25-0.21484-0.26562l-0.51953-0.054687c0.28906-2.6953 0.48047-5.543 0.55859-8.4414l0.54297 0.011718h0.007813c0.12891 0 0.23828-0.10547 0.24219-0.23438 0.003906-0.13281-0.10156-0.24219-0.23438-0.24609l-0.54688-0.011719c0.050782-2.3359 0.03125-4.6992-0.078125-7.0469l0.56641-0.027344c0.13281-0.007812 0.23437-0.12109 0.23047-0.25391-0.007812-0.13281-0.11719-0.23438-0.25391-0.23047l-0.55859 0.027344c-0.11719-2.2695-0.32422-4.5117-0.60938-6.6992l0.32422-0.03125c0.13281-0.011719 0.23047-0.13281 0.21484-0.26562-0.011719-0.13281-0.13281-0.23047-0.26562-0.21484l-0.34375 0.035157c-0.16797-1.2344-0.35938-2.4531-0.58594-3.6328-0.003906-0.011719-0.015625-0.019531-0.019531-0.03125s0.003906-0.023437-0.003906-0.035156c-0.011719-0.019531-0.03125-0.023438-0.046875-0.039063-0.023438-0.023437-0.039063-0.042968-0.070313-0.058594-0.027344-0.015624-0.054687-0.015624-0.085937-0.015624-0.019531 0-0.039063-0.015626-0.058594-0.011719-0.011719 0.003906-0.019531 0.015625-0.03125 0.019531s-0.023437-0.003906-0.035156 0.003906c-0.58984 0.30859-1.1602 1.2383-1.2852 2.0117-0.058593-0.003906-0.12109 0.007813-0.18359 0.042969-0.35547 0.20703-0.27734 1.2227-0.12109 1.8867-0.11719-0.027343-0.19141-0.070312-0.26953-0.11719-0.11328-0.066406-0.24609-0.14062-0.46094-0.17188-0.082031-0.011719-0.16797 0.019531-0.21875 0.085938-0.054687 0.066406-0.070312 0.15234-0.042968 0.23047 0.039062 0.11719 0.50781 1.7031 0.72656 2.4492-0.30078-0.058594-0.66797-0.11719-0.70703-0.12109-0.078125 0.003907-0.14844 0.046875-0.1875 0.10938-0.042969 0.066406-0.050781 0.14844-0.019531 0.21875 0.042968 0.11328 0.54297 1.1328 0.71875 1.4961-0.17578 0.62109-0.20313 1.6758-0.15234 2.4805-1.7188-1.5859-2.6055-3.7148-2.3867-5.8047 0.23047-2.1992 1.6641-4.0742 4.0469-5.2773 0.09375-0.046876 0.14453-0.15234 0.12891-0.25391-0.015625-0.10547-0.097656-0.18359-0.20312-0.19922-1.6641-0.24219-2.3945 0.22266-3.3672 0.96484-0.035156-0.10156-0.074219-0.22266-0.10156-0.30859-0.14844-0.46094-0.21484-0.67187-0.40625-0.72266-0.085937-0.023437-0.17969-0.003906-0.24609 0.058594-0.12109 0.10938-0.14453 0.28906-0.19141 1.082-0.015625 0.25391-0.035156 0.625-0.0625 0.75-0.19922 0.19141-0.39844 0.40234-0.60938 0.63672l-0.67969-1.0078c-0.058594-0.089844-0.17188-0.12891-0.27344-0.09375-0.10156 0.035156-0.17188 0.13281-0.16406 0.23828l0.089843 2.2617c-0.054687 0.12891-0.13672 0.35156-0.23047 0.62891-0.48828-1.3438-0.5625-1.4883-0.78906-1.4883h-0.003906c-0.10938 0-0.20703 0.070313-0.24219 0.17969-0.035157 0.097656-0.039063 0.10938 0.29687 1.3867 0.10938 0.41797 0.25781 0.98047 0.28906 1.1445-0.13672 0.38281-0.33594 0.78516-0.48828 1.0781l-0.99219-1.4297c-0.066406-0.097657-0.19531-0.13281-0.30469-0.078126-0.10547 0.050782-0.16016 0.17578-0.125 0.28906 0.25781 0.84375 0.60156 2.1602 0.55859 2.4375-0.03125 0.19922-0.11328 0.48047-0.23437 0.83984-0.019532-0.023438-0.042969-0.050781-0.058594-0.070313-0.34375-0.41016-0.41406-0.49609-0.58203-0.46484-0.085937 0.015626-0.16016 0.082032-0.1875 0.16406-0.046874 0.13281-0.003906 0.23047 0.28125 0.78906 0.082032 0.16016 0.19922 0.39062 0.23828 0.49219-0.26953 0.78516-0.50391 1.5039-0.62109 2.082-2.1758-4.0781-1.3047-7.8633 0.30469-10.117 1.8438-2.5781 4.8555-3.7617 7.8594-3.0938 0.09375 0.019531 0.1875-0.015625 0.24609-0.089844 0.058594-0.078125 0.0625-0.17969 0.015625-0.26172-0.375-0.67578-1.1016-0.85547-2.5469-1.207l-0.03125-0.007813c-0.003906-0.027343-0.007812-0.0625-0.007812-0.089843-0.011719-0.14844-0.039063-0.45703-0.32812-0.50781-0.25391-0.042968-0.57812 0.058594-0.91797 0.16406-0.20703 0.066406-0.4375 0.13672-0.58594 0.14844-0.007812-0.039062-0.015624-0.097656-0.019531-0.13672-0.019531-0.17188-0.0625-0.56641-0.45703-0.54297-0.33594 0.019531-0.79688 0.27344-1.2852 0.53906-0.23438 0.12891-0.47656 0.26172-0.66016 0.33594-0.003907-0.050781-0.007813-0.10156-0.007813-0.14453-0.007813-0.23828-0.019531-0.46484-0.19141-0.57422-0.085938-0.054688-0.19531-0.0625-0.29688-0.019531-0.25391 0.10547-0.58203 0.47266-1.0547 1.0234-0.15234 0.17578-0.31641 0.37109-0.44922 0.51172-0.011719-0.0625-0.023438-0.125-0.03125-0.16797-0.046876-0.27734-0.070313-0.40625-0.19922-0.47656-0.066407-0.035156-0.15234-0.039062-0.22266-0.007812-0.14062 0.0625-0.25391 0.24219-0.53516 0.73828-0.10547 0.1875-0.26562 0.46484-0.32812 0.53516-0.44141 0.24219-0.94141 0.54297-1.4492 1.1055-0.28125-1.625 0.14844-2.9141 1.2539-3.7461 2.1016-1.582 6.1602-1.1875 9.8711 0.95313 0.10156 0.058593 0.22656 0.035156 0.30469-0.050782 0.074219-0.089844 0.078125-0.21875 0.003906-0.30859-0.53125-0.66406-2.0078-2.4961-4.7617-4.0273 2.4062 0.52344 3.8477 1.7266 5.1836 3.3359 0.007813 0.007813 0.019531 0.007813 0.027344 0.015625 0.023437 0.023438 0.046875 0.03125 0.078125 0.042969s0.054688 0.023438 0.085938 0.019531c0.011718 0 0.019531 0.007813 0.03125 0.007813 0.023437-0.003906 0.035156-0.023438 0.054687-0.035156 0.019531-0.007813 0.042969-0.003907 0.0625-0.019532 0.007813-0.007812 0.007813-0.019531 0.015625-0.027344 0.023438-0.023437 0.03125-0.046874 0.042969-0.078124s0.023437-0.054688 0.023437-0.085938c0-0.011719 0.007813-0.019531 0.007813-0.03125-0.097657-0.63672-0.12109-1.3047-0.14844-2.0156-0.003906-0.058594-0.003906-0.11719-0.007812-0.17188 0.33594 1.1016 0.65625 2.2148 0.94922 3.3281 0.007812 0.035156 0.035156 0.054687 0.054687 0.082031 0.011719 0.011719 0.015625 0.027344 0.027344 0.039063 0.042969 0.035156 0.09375 0.058593 0.15234 0.058593h0.011719 0.003907 0.003906c0.015625 0 0.027344 0 0.042968-0.003906 0.023438-0.007812 0.035157-0.03125 0.054688-0.042968 0.027344-0.015626 0.050781-0.027344 0.070312-0.054688 0.019532-0.027344 0.023438-0.054688 0.03125-0.085938 0.007813-0.023437 0.023438-0.039062 0.023438-0.066406-0.14453-2.4727 0.71484-3.8633 1.6445-4.8672 0.023438 0.070312 0.042969 0.14453 0.0625 0.20703 0.12109 0.41016 0.19531 0.65625 0.39844 0.71484 0.089843 0.027344 0.1875 0.003906 0.26172-0.058594 0.17969-0.15234 0.37891-0.50391 0.60937-0.91406 0.097657-0.17578 0.23438-0.41406 0.35938-0.60547-0.015626 0.26953-0.011719 0.49609 0.14844 0.61719 0.085937 0.066406 0.19531 0.082032 0.30078 0.046875 0.21484-0.070312 0.48438-0.34766 0.91016-0.79297 0.19922-0.20703 0.49609-0.52344 0.69141-0.68359-0.003907 0.039062-0.007813 0.078125-0.011719 0.10938-0.027344 0.27344-0.050781 0.50781 0.078125 0.66406 0.058594 0.070313 0.13672 0.10938 0.22656 0.11719 0.12891 0.011718 0.28125-0.054688 0.68359-0.24609 0.15625-0.074219 0.41016-0.19531 0.5-0.21875 0.54688 0.10156 1.0781 0.29297 1.5898 0.57422-2.8477 0.25-5.332 1.832-6.6133 3.3984-0.81641 1-1.168 2.0195-0.99219 2.875 0.019532 0.097656 0.10156 0.17578 0.19922 0.19141 0.10156 0.015626 0.19922-0.035156 0.24609-0.125 0.75391-1.3867 2.332-2.8359 4.1953-3.043-0.035156 0.17188-0.070312 0.36328 0.050781 0.51172 0.066407 0.078126 0.16406 0.125 0.27734 0.125 0.16016 0 0.44141-0.074218 0.88672-0.19531 0.28516-0.078125 0.76953-0.21094 1.0117-0.24219-0.027344 0.054688-0.058594 0.11328-0.082032 0.15625-0.12891 0.23438-0.26172 0.47266-0.17578 0.69141 0.027344 0.074219 0.09375 0.17578 0.24609 0.23047 0.24219 0.085937 0.64844 0.03125 1.1211-0.035157 0.12891-0.015625 0.27734-0.039062 0.42578-0.054687-0.50391 0.27344-0.66406 0.375-0.67188 0.56641-0.003906 0.09375 0.042969 0.18359 0.125 0.23438 0.23438 0.14844 0.6875 0.17969 1.2188 0.21484 0.15625 0.011719 0.35938 0.023437 0.54688 0.042969-0.011719 0.003906-0.023438 0.007812-0.035156 0.011718-0.66406 0.22266-0.80469 0.27734-0.84766 0.45312-0.019532 0.078125 0.003906 0.17578 0.058593 0.23438 0.097657 0.10938 0.25 0.13672 0.92578 0.21484 0.22656 0.027344 0.55469 0.066406 0.67188 0.097656 0.44141 0.59375 0.6875 1.2148 0.73437 1.8516-3.5273-2.8516-6.2461-3.8555-10.098-1.3086-0.085937 0.058594-0.125 0.16016-0.10156 0.26172 0.027344 0.10156 0.11328 0.17188 0.21484 0.17969 0.17969 0.015625 0.39453-0.011719 0.66797-0.042969 0.69531-0.078124 1.7227-0.19531 3.2617 0.16797-0.09375 0.070313-0.19922 0.14453-0.28516 0.20703-0.61719 0.44531-0.80859 0.59375-0.78125 0.8125 0.015625 0.10156 0.078125 0.17969 0.17578 0.21875 0.16016 0.058594 0.54688 0.039063 1.5273-0.027343 0.36328-0.023438 0.84375-0.058594 1.1914-0.066407-0.35938 0.22656-0.93359 0.54688-1.4492 0.80469-0.085937 0.042969-0.13672 0.13281-0.13281 0.23047 0.003906 0.097656 0.066406 0.17969 0.15625 0.21094 0.24219 0.089844 0.57031 0.074219 0.98438 0.058594 0.79297-0.03125 1.8477-0.074219 2.6641 0.64062-0.32422 0.019531-0.76953 0.039063-1.0859 0.050781-0.77344 0.03125-1.1719 0.11719-1.1992 0.25391-0.023438 0.10938 0.035156 0.22266 0.13672 0.26953 0.16797 0.078125 0.41016 0.12891 0.71875 0.19531 0.67969 0.14062 1.6562 0.34766 2.25 0.98828-0.23047-0.011719-0.51953-0.039063-0.74609-0.058594-1.1953-0.10156-1.332-0.097656-1.4453 0.050781-0.050781 0.066406-0.066406 0.16406-0.039062 0.24219 0.054688 0.16406 0.29297 0.35156 1.2109 1.0195 0.25 0.18359 0.55859 0.40625 0.76562 0.57031-0.21094-0.015625-0.48437-0.058594-0.60156-0.078125-0.30469-0.050781-0.48828-0.078125-0.55469 0.13672-0.058593 0.19531 0.0625 0.42188 0.30469 0.83984 0.097656 0.16406 0.25391 0.43359 0.27734 0.53906-0.042969 0.11328-0.082032 0.22656-0.12109 0.33984-0.23828 0.69141-0.46484 1.3516-1.082 1.8867-1.5-7.8945-4.5195-8.9766-7.5703-8.9609-0.007812 0-0.015625 0.007813-0.023437 0.011719-0.007813 0-0.015625-0.007812-0.027344-0.003906-0.023437 0.003906-0.035156 0.027344-0.058594 0.039062-0.027343 0.015625-0.054687 0.027344-0.074219 0.050782-0.019531 0.023437-0.023437 0.050781-0.035156 0.082031-0.007812 0.023437-0.027344 0.039062-0.027344 0.0625 0 0.007812 0.007813 0.015625 0.011719 0.023437 0 0.007813-0.007812 0.015625-0.003906 0.027344 0.49609 2.2891 0.89844 4.6562 1.207 7.0977l-0.64453 0.078125c-0.13281 0.015625-0.22656 0.13672-0.21094 0.26953 0.015624 0.12109 0.11719 0.21094 0.23828 0.21094h0.03125l0.64062-0.078125c0.26562 2.1797 0.45703 4.4258 0.57422 6.7344l-0.63672 0.03125c-0.13281 0.007812-0.23438 0.12109-0.23047 0.25391 0.007813 0.12891 0.11328 0.23047 0.24219 0.23047h0.011719l0.63281-0.03125c0.13281 2.918 0.15234 5.9375 0.050781 9.0781l-0.55469-0.019531c-0.13281-0.003907-0.24609 0.10156-0.25 0.23438-0.003907 0.13281 0.10156 0.24609 0.23437 0.25l0.55469 0.019531c-0.11719 3.1836-0.35547 6.4883-0.71094 9.9141l-1.0039-0.10547c-0.13281-0.015625-0.25 0.082031-0.26562 0.21484-0.015625 0.13281 0.082031 0.25 0.21484 0.26563l1.0078 0.10547c-0.21094 1.9688-0.46094 3.9766-0.75 6.0312-1.0391-0.10156-2.0938-0.17578-3.1406-0.21875 0.26563-0.85938 0.51953-1.793 0.75781-2.7852zm12.68 11.184c-6.8984 0.035157-14.035 0.074219-21.035 0.074219-3.4219 0-5.4219-1.1484-5.5469-1.9805-0.066406-0.43359 0.41016-0.83984 1.3047-1.1211 1.5625-0.48828 3.0469-1.3984 4.4844-2.2812 2.0781-1.2734 4.043-2.4805 6.1719-2.4805 5.7266 0.078125 12.02 1.2734 15.305 2.8984 4.9961 2.4766 9.3281 4.0312 13.57 4.8242-4.7891 0.015625-9.5742 0.039063-14.25 0.0625zm-1.582-9.3711c1.4648-0.0625 2.9805-0.125 4.5938-0.125 3.6406 0 6.7305-0.046876 10.582-0.61328 1.9141-0.28125 4.6133-0.035156 7.7383 0.25391 4.8125 0.44141 10.805 0.99609 15.801-0.375 1.4961-0.41016 4.5703-0.35547 7.0391-0.30859 1.082 0.019531 2.0195 0.035156 2.6406 0.011719 0.17969-0.003907 0.32812 0.13281 0.33594 0.30859s-0.13281 0.32812-0.30859 0.33594c-0.64062 0.023437-1.5859 0.007812-2.6797-0.011719-2.4258-0.042969-5.4492-0.097656-6.8555 0.28516-5.1094 1.4023-11.164 0.84375-16.027 0.39453-3.082-0.28516-5.7461-0.52734-7.5859-0.25781-3.8945 0.57422-7.0078 0.62109-10.676 0.62109-1.6016 0-3.1094 0.0625-4.5664 0.125-1.2969 0.054687-2.5195 0.10547-3.6719 0.10547-0.17578 0-0.32031-0.14453-0.32031-0.32031 0-0.17969 0.14453-0.32031 0.32031-0.32031 1.1406 0 2.3594-0.050781 3.6445-0.10547zm42.426 3.0586c0.13281 0 0.24219 0.10938 0.24219 0.24219 0 0.13281-0.10938 0.24219-0.24219 0.24219h-0.12109c-1.082 0-1.625 0-2.6055-0.12109-4.5859-0.57031-6.9023-0.23828-9.1406 0.085938-1.2188 0.17578-2.3867 0.34375-3.8438 0.34375-0.30859 0-0.62891-0.007812-0.96875-0.023438-1.6562-0.082031-2.6836-0.32031-3.5078-0.51562-0.92188-0.21484-1.5898-0.37109-2.668-0.21484-2.332 0.34375-4.957 0.33594-7.4961 0.33203h-0.88672c-0.13281 0-0.24219-0.10938-0.24219-0.24219 0-0.13281 0.10938-0.24219 0.24219-0.24219h0.88672c2.5195 0.003906 5.1289 0.011719 7.4219-0.32812 1.168-0.17188 1.9102 0 2.8477 0.21875 0.80469 0.1875 1.8086 0.42188 3.4219 0.50391 1.8867 0.09375 3.2617-0.10547 4.7188-0.3125 2.1641-0.3125 4.6172-0.66406 9.2656-0.085937 0.94922 0.11719 1.4844 0.11719 2.5469 0.11719zm11.406 4.4727c0 0.17969-0.14453 0.32031-0.32031 0.32031-0.64844 0-1.2812 0.003906-1.9023 0.007812-2.8086 0.019532-5.4609 0.039063-8.2461-0.37109-2.0938-0.30859-4.4297 0.082031-6.4883 0.42969-1.3125 0.21875-2.4883 0.41797-3.457 0.41797-0.32812 0-0.63281-0.023437-0.91016-0.074219-5.2852-0.98438-5.9844-0.98047-9.8672-0.94531-0.89453 0.007812-1.9062 0.015625-3.1875 0.015625-0.17969 0-0.32031-0.14453-0.32031-0.32031 0-0.17578 0.14453-0.32031 0.32031-0.32031 1.2773 0 2.2891-0.007813 3.1836-0.015625 3.9375-0.035157 4.6484-0.042969 9.9922 0.95312 0.98828 0.18359 2.4492-0.0625 4.1445-0.34375 2.1055-0.35547 4.4922-0.75391 6.6875-0.42969 2.7344 0.40234 5.3633 0.38281 8.1445 0.36328 0.625-0.003907 1.2578-0.007813 1.9062-0.007813 0.17578 0 0.32031 0.14453 0.32031 0.32031zm-40.488-30.352c0-0.17578 0.14453-0.32031 0.32031-0.32031 0.67188 0 1.1406-0.15234 1.5508-0.28906 1.0352-0.33984 1.6055-0.33594 2.6172 1.1602 0.85937-1.4883 1.3203-1.5781 2.2578-1.1445 0.41406 0.19141 0.92969 0.43359 1.7891 0.41016 0.17578-0.003906 0.32422 0.13672 0.32813 0.3125 0.003906 0.17578-0.13672 0.32422-0.3125 0.32812-1.0078 0.027344-1.625-0.25781-2.0742-0.46875-0.62891-0.29297-0.77734-0.35938-1.6836 1.3398-0.054687 0.10156-0.16016 0.16797-0.27344 0.17188h-0.011719c-0.11328 0-0.21484-0.058594-0.27344-0.15234-1.0547-1.7109-1.3555-1.6133-2.1602-1.3477-0.43359 0.14453-0.97656 0.32031-1.7539 0.32031-0.17578 0-0.32031-0.14453-0.32031-0.32031zm-5.8555 4.8516c0-0.17969 0.14453-0.32031 0.32031-0.32031 0.67188 0 1.1406-0.15234 1.5508-0.28906 1.0352-0.33984 1.6055-0.33594 2.6172 1.1602 0.85938-1.4883 1.3203-1.5781 2.2578-1.1445 0.41406 0.19141 0.92969 0.43359 1.7891 0.41016 0.17969-0.003906 0.32422 0.13672 0.32812 0.3125 0.003906 0.17578-0.13672 0.32422-0.3125 0.32812-1.0078 0.027343-1.625-0.25781-2.0742-0.46875-0.62891-0.29297-0.77734-0.35938-1.6836 1.3398-0.054687 0.10156-0.16016 0.16797-0.27344 0.17188h-0.011719c-0.11328 0-0.21484-0.058594-0.27344-0.15234-1.0547-1.7109-1.3555-1.6133-2.1602-1.3477-0.43359 0.14453-0.97656 0.32031-1.7539 0.32031-0.17578 0-0.32031-0.14453-0.32031-0.32031zm15.207-0.63281c0.85938-1.4883 1.3203-1.5781 2.2578-1.1445 0.41406 0.19141 0.92969 0.43359 1.7891 0.41016 0.17969-0.007812 0.32422 0.13672 0.32812 0.3125 0.003906 0.17578-0.13672 0.32422-0.3125 0.32812-1.0078 0.027344-1.625-0.25781-2.0742-0.46875-0.62891-0.29297-0.77734-0.35938-1.6836 1.3398-0.054687 0.10156-0.16016 0.16797-0.27344 0.17188h-0.011719c-0.11328 0-0.21484-0.058594-0.27344-0.15234-1.0547-1.7109-1.3555-1.6133-2.1602-1.3477-0.43359 0.14453-0.97656 0.32031-1.7539 0.32031-0.17578 0-0.32031-0.14453-0.32031-0.32031 0-0.17969 0.14453-0.32031 0.32031-0.32031 0.67188 0 1.1406-0.15234 1.5508-0.28906 1.0352-0.33984 1.6055-0.33594 2.6172 1.1602z"/>
<text x="0.0" y="117.5" font-size="5.0" font-weight="bold" font-family="Arbeit Regular, Helvetica, Arial-Unicode, Arial, Sans-serif" fill="#000000">Created by Eskak</text><text x="0.0" y="122.5" font-size="5.0" font-weight="bold" font-family="Arbeit Regular, Helvetica, Arial-Unicode, Arial, Sans-serif" fill="#000000">from Noun Project</text></svg>